<?xml version="1.0" standalone="no"?>
<!DOCTYPE svg PUBLIC "-//W3C//DTD SVG 20010904//EN"
 "http://www.w3.org/TR/2001/REC-SVG-20010904/DTD/svg10.dtd">
<svg version="1.0" xmlns="http://www.w3.org/2000/svg"
 width="413.000000pt" height="413.000000pt" viewBox="0 0 413.000000 413.000000"
 preserveAspectRatio="xMidYMid meet">
<metadata>
Created by potrace 1.11, written by Peter Selinger 2001-2013
</metadata>
<g transform="translate(0.000000,413.000000) scale(0.100000,-0.100000)"
fill="#000000" stroke="none">
<path d="M1922 4083 c2 -5 -7 -35 -19 -68 -12 -33 -40 -114 -63 -180 -64 -188
-48 -173 -127 -118 -38 26 -69 50 -71 55 -2 4 -10 8 -17 8 -8 0 -20 6 -27 13
-7 7 -64 48 -126 91 l-114 79 7 -54 c3 -30 10 -76 15 -104 8 -45 16 -90 24
-150 2 -11 7 -38 11 -60 l8 -40 -44 36 c-24 20 -54 41 -66 47 -12 7 -27 18
-35 24 -7 7 -31 22 -53 34 -22 11 -57 31 -78 42 l-37 22 17 -28 c9 -15 22 -34
29 -42 23 -28 127 -238 139 -280 10 -37 29 -90 32 -90 2 0 34 15 71 34 180 92
408 162 600 183 85 10 338 10 417 1 57 -7 141 -21 195 -34 43 -10 85 -9 85 1
5 66 27 192 50 278 3 9 7 25 9 35 2 9 14 41 25 70 12 29 21 55 21 57 0 13
-158 -140 -217 -211 -18 -21 -35 -36 -38 -33 -2 3 -7 48 -10 100 -12 232 -15
282 -18 286 -5 4 -33 -24 -107 -108 -36 -40 -80 -89 -98 -109 -19 -19 -57 -61
-85 -92 -28 -32 -53 -58 -57 -58 -6 0 -87 121 -114 170 -40 72 -122 200 -128
200 -5 0 -7 -3 -6 -7z"/>
<path d="M2063 3438 c-197 -16 -391 -66 -551 -139 -35 -16 -68 -29 -73 -29
-24 0 -5 -20 24 -25 46 -9 123 -68 157 -122 17 -26 28 -48 26 -50 -2 -2 -27 9
-55 23 -62 32 -168 41 -214 17 -56 -28 -99 -86 -115 -153 -15 -67 7 -230 38
-275 4 -5 10 -18 13 -28 8 -23 -5 -15 -57 33 -42 39 -76 96 -89 150 -14 57
-11 181 5 228 9 23 13 42 11 42 -3 0 -40 -29 -83 -65 -79 -66 -201 -191 -248
-254 -15 -20 -30 -38 -33 -41 -24 -19 -173 -270 -165 -278 2 -2 19 -5 38 -8
18 -3 44 -7 58 -11 14 -3 29 -5 34 -4 4 1 17 -1 27 -4 17 -6 14 -12 -26 -65
-25 -32 -45 -61 -45 -64 0 -3 -11 -22 -25 -42 -78 -115 -201 -428 -221 -564
-16 -106 -16 -143 -3 -134 8 5 21 9 29 10 8 0 22 3 30 7 49 19 213 67 217 64
2 -3 0 -22 -6 -43 -5 -22 -13 -59 -16 -84 -3 -25 -8 -61 -10 -80 -7 -51 -7
-276 -1 -340 14 -124 62 -324 100 -415 36 -85 41 -95 53 -99 20 -8 310 286
347 353 5 9 12 18 15 21 4 3 24 30 46 60 22 30 42 57 45 60 3 3 11 17 19 33 8
15 17 27 21 27 6 0 38 -130 47 -190 2 -19 13 -197 14 -255 0 -5 -2 -57 -5
-115 -6 -103 -9 -135 -21 -215 -12 -78 -15 -91 -24 -140 -5 -27 -9 -51 -8 -51
1 -1 27 -14 57 -29 96 -48 206 -82 335 -102 87 -14 343 -7 405 12 8 2 31 7 50
10 111 19 416 150 467 201 8 8 20 13 27 11 11 -3 31 -55 40 -100 2 -12 10 -43
16 -69 l12 -47 61 42 c89 61 274 249 336 342 98 145 159 284 200 455 11 48 26
134 30 179 1 14 54 -39 108 -107 24 -30 27 -31 38 -15 11 16 19 41 30 93 2 8
11 42 19 75 9 33 19 83 22 110 3 28 10 70 14 95 9 46 6 348 -3 387 -3 11 -9
43 -13 70 -5 26 -9 50 -9 53 -1 3 -5 19 -9 35 -20 77 -49 171 -56 180 -4 6
-13 27 -20 48 -18 56 -141 299 -160 317 -3 3 -21 29 -39 58 -18 28 -36 52 -40
52 -4 0 -8 -17 -9 -37 -1 -20 -6 -41 -12 -47 -6 -6 -10 -6 -10 0 0 5 -25 36
-55 68 -30 31 -55 61 -55 65 0 5 11 16 24 26 26 20 26 40 0 100 -25 59 -66 60
-136 4 -21 -16 -38 -26 -38 -22 0 9 -120 83 -133 83 -7 0 101 -171 113 -180
63 -47 229 -200 218 -200 -2 0 -28 7 -57 16 -51 15 -208 26 -225 16 -5 -3 -27
-7 -48 -9 -22 -1 -53 -10 -69 -19 l-31 -15 -124 128 c-80 83 -125 137 -128
154 -4 28 24 101 43 113 6 4 11 11 11 17 0 12 -93 -24 -126 -50 -26 -20 -27
-20 -53 -2 -39 28 -129 72 -186 90 -66 22 -97 19 -178 -19 -49 -23 -140 -97
-133 -108 7 -12 129 -70 166 -80 19 -5 78 -10 130 -11 168 -3 159 1 308 -147
106 -107 123 -131 75 -113 -53 20 -69 22 -293 24 -124 2 -225 4 -225 5 0 1
-11 3 -25 6 -82 14 -229 117 -230 161 0 6 -4 13 -9 15 -6 2 -15 26 -22 53 -16
63 -19 66 -63 72 -19 2 -47 8 -62 12 l-27 7 44 43 c48 47 125 100 177 120 17
8 32 16 32 19 0 3 -16 19 -37 37 l-36 31 34 25 c62 44 133 84 199 110 93 38
116 46 195 65 64 15 95 13 141 -8 60 -29 178 -99 182 -110 2 -4 9 -8 16 -8 6
0 27 -13 46 -29 19 -15 45 -31 58 -35 18 -6 22 -4 22 13 0 12 4 21 8 21 5 0 9
6 9 13 2 44 22 107 34 107 40 0 324 -197 420 -291 28 -27 45 -38 36 -21 -41
69 -101 253 -99 304 1 30 -117 122 -234 181 -56 28 -248 97 -271 97 -11 0 -13
-6 -8 -22 16 -52 36 -141 32 -144 -2 -2 -38 29 -80 70 -42 41 -101 88 -131
105 -52 30 -62 32 -163 34 -59 1 -145 -1 -190 -5z m740 -1218 c23 -16 71 -44
107 -62 l65 -33 -2 -85 c-1 -47 -2 -98 -3 -115 -1 -26 -14 -40 -87 -95 -170
-127 -293 -188 -378 -186 -36 1 -42 5 -61 41 -11 22 -45 85 -74 140 -102 192
-93 167 -68 188 38 30 192 132 200 132 3 0 10 3 14 8 18 17 168 79 219 90 11
3 22 5 23 6 2 0 22 -12 45 -29z m509 -124 c29 -112 28 -242 -3 -341 -23 -76
-34 -89 -46 -57 -10 24 -56 91 -90 128 -65 72 -64 70 -64 162 -1 145 -4 135
52 172 28 18 62 43 77 57 l26 24 13 -32 c7 -18 23 -69 35 -113z m-191 -447
c31 -31 69 -119 69 -162 0 -21 -7 -53 -15 -73 -8 -19 -14 -35 -14 -37 2 -8
-31 -71 -62 -118 -35 -52 -101 -119 -117 -119 -4 0 -8 26 -8 58 -1 50 -5 90
-17 154 -5 27 -15 32 -31 17 -36 -33 -50 -42 -104 -68 -104 -52 -128 -57 -151
-37 -11 10 -18 22 -16 26 3 5 2 10 -2 12 -5 1 -17 21 -28 43 -11 22 -29 56
-41 76 l-22 36 68 21 c42 14 107 49 175 95 148 100 142 97 223 97 60 0 76 -4
93 -21z"/>
</g>
</svg>
